<?xml version="1.0" standalone="no"?>
<!DOCTYPE svg PUBLIC "-//W3C//DTD SVG 1.1//EN" "http://www.w3.org/Graphics/SVG/1.1/DTD/svg11.dtd">
<svg xmlns="http://www.w3.org/2000/svg">
<metadata>Copyright (C) 2019 by original authors @ fontello.com</metadata>
<defs>
<font id="fontello" horiz-adv-x="1000" >
<font-face font-family="fontello" font-weight="400" font-stretch="normal" units-per-em="1000" ascent="850" descent="-150" />
<missing-glyph horiz-adv-x="1000" />
<glyph glyph-name="chevron-down" unicode="&#xe313;" d="M309 515l191-191 191 191 59-59-250-250-250 250z" horiz-adv-x="1000" />

<glyph glyph-name="chevron-left" unicode="&#xe314;" d="M643 171l-59-58-250 250 250 250 59-59-192-191z" horiz-adv-x="1000" />

<glyph glyph-name="chevron-right" unicode="&#xe315;" d="M357 131l192 191-192 192 59 58 250-250-250-250z" horiz-adv-x="1000" />

<glyph glyph-name="chevron-top" unicode="&#xe316;" d="M309 199l-59 58 250 250 250-250-59-58-191 191z" horiz-adv-x="1000" />

<glyph glyph-name="wallet" unicode="&#xe804;" d="M0 22l0 625q0 70 51 121t121 51l640 0q40 0 67-28t27-66l0-281q94-71 94-188t-94-187l0-47q0-70-51-121t-121-51l-562 0q-70 0-121 51t-51 121z m63 0q0-45 32-77t77-33l562 0q45 0 78 33t32 77l0 47-281 0q-65 0-111 46t-46 110 46 110 111 46l281 0 0 63q0 13-9 22t-23 9l-640 0q-63 0-109 39l0-492z m0 625q0-45 31-76l0 123q0 13 9 22t22 9l656 0q14 0 23-9t9-22l0-156q15 0 31-6l0 193q0 14-9 22t-23 9l-640 0q-45 0-77-32t-32-77z m62-98q23-11 47-11l609 0 0 31-656 0 0-20z m0 51l656 0 0 31-656 0 0-31z m0 62l656 0 0 32-656 0 0-32z m344-437q0-39 27-66t67-28l320 0q54 51 54 125 0 59-35 104l0-2q-4-8-7-14-20-25-51-25l-281 0q-40 0-67-28t-27-66z m31 0q0 25 19 44t44 19 43-19 19-44-19-44-43-18-44 18-19 44z" horiz-adv-x="1000" />

<glyph glyph-name="mobile" unicode="&#xe805;" d="M0-56l0 812q0 39 27 67t67 27l500 0q39 0 66-27t28-67l0-812q0-39-28-67t-66-27l-500 0q-39 0-67 27t-27 67z m63 0q0-14 8-23t23-9l500 0q13 0 22 9t9 23l0 62-562 0 0-62z m0 94l562 0 0 624-562 0 0-624z m0 656l562 0 0 62q0 14-9 23t-22 8l-500 0q-14 0-23-8t-8-23l0-62z m218 47q0 15 16 15l94 0q15 0 15-15t-15-16l-94 0q-16 0-16 16z m32-782q0 16 15 16l31 0q16 0 16-16t-16-15l-31 0q-15 0-15 15z" horiz-adv-x="687" />

<glyph glyph-name="user-add" unicode="&#xe806;" d="M620 128q180-64 180-122l0-106-800 0 0 202q36 14 82 26 94 34 129 69t35 95q0 22-23 48t-31 74q-2 12-23 25t-25 61q0 16 5 26t9 12l4 4q-8 50-12 88-6 54 40 112t160 58 160-58 42-112l-14-88q18-8 18-42-2-28-9-43t-14-17-14-8-9-18q-10-46-33-73t-23-49q0-60 36-95t130-69z m230 272l150 0 0-100-150 0 0-150-100 0 0 150-150 0 0 100 150 0 0 150 100 0 0-150z" horiz-adv-x="1000" />

<glyph glyph-name="upload-cloud" unicode="&#xe807;" d="M760 494q100 0 170-68t70-166-70-166-170-68l-190 0 0 190 106 0-176 230-174-230 104 0 0-190-248 0q-74 0-128 52t-54 124q0 74 53 126t129 52q14 0 20-2-2 12-2 38 0 108 78 184t188 76q90 0 160-52t94-134q28 4 40 4z" horiz-adv-x="1000" />

<glyph glyph-name="flow-cross" unicode="&#xe808;" d="M209 133q45-16 74-57t30-91q0-65-46-110t-111-46-110 46-46 110q0 50 29 91t75 57l0 35q0 97 76 166 49-40 95-60-66-39-66-106l0-35z m-53-199q22 0 37 15t16 36-16 37-37 16-37-16-15-37 15-36 37-15z m469 634q-45 16-74 57t-30 90q0 65 46 111t111 46 110-46 46-111q0-50-30-90t-75-57l0-18q0-105-79-180-44 37-95 57 70 43 70 123l0 18z m53 199q-22 0-37-15t-16-37 16-37 37-15 36 15 15 37-15 37-36 15z m48-634q48-15 78-56t30-92q0-65-46-110t-110-46-111 46-46 110q0 49 28 89t72 58q-13 71-72 118t-133 48q-117 0-205 77t-103 193q-48 15-78 55t-30 92q0 65 46 111t110 46 111-46 46-111q0-48-28-88t-72-58q13-71 71-119t132-47q118 0 206-78t104-192z m-570 634q-21 0-37-15t-15-37 15-37 37-15 37 15 16 37-16 37-37 15z m522-833q21 0 36 15t15 36-15 37-36 16-37-16-16-37 16-36 37-15z" horiz-adv-x="834" />

<glyph glyph-name="clouds-flash-alt" unicode="&#xe809;" d="M0 336q0 90 64 154t155 65q17 0 31-2 1 4 4 4-4 18-4 29 0 72 51 123t123 51h13q73 89 188 89t187-89h14q72 0 123-51t50-123q0-66-46-117 46-59 46-133 0-90-64-154t-154-65q-40 0-78 16-40-36-92-57l-35 36 12 23q63 26 103 74 41-29 90-29 64 0 110 46t46 110q0 52-33 96-23 29-56 44t-67 16l-26-2q-18-3-33-9-32 62-91 99-59 37-131 37-104 0-178-76-24-24-41-55-1-3-4-5-27 11-58 11-65 0-111-46t-45-110 45-110 111-46q48 0 89 29 21-25 51-45l-56-37-6 4q-37-14-78-14-90 0-155 65t-64 154z m318 285q82 59 182 59 73 0 140-34 66-32 110-93 13 2 31 2 70 0 129-41 27 31 27 72 0 47-32 79t-79 32q-23 0-43-8-22 45-65 72t-93 26-94-26-64-72q-21 8-43 8-37 0-66-21-28-21-40-55z m57-771l62 187-62 63 187 125-62-125 62-63z" horiz-adv-x="1000" />

<glyph glyph-name="megaphone" unicode="&#xe81a;" d="M891 6c-26 0-47 21-47 47v563c0 26 21 47 47 47s47-21 47-47v-563c0-26-21-47-47-47z m-235 63c0-35-28-63-62-63h-281c-35 0-63 28-63 63v124l-125 27v226l689 152v-531l-158 35v-33z m-31 40l-344 77v-117c0-17 14-31 32-31h281c17 0 31 14 31 31v40z m-562 85c-18 0-32 14-32 31v219c0 17 14 31 32 31s31-14 31-31v-219c0-17-14-31-31-31z" horiz-adv-x="1000" />

<glyph glyph-name="website" unicode="&#xe81b;" d="M813 131l93-93 313 312-313 313-93-94 218-219z m-375 438l-94 94-313-313 313-312 94 93-219 219z m247 134l68-18-188-688-68 19 188 687z" horiz-adv-x="1250" />

<glyph glyph-name="analytics" unicode="&#xe81c;" d="M125-25h875v-125h-1000v1000h125z m156 63c-51 0-93 42-93 93s42 94 93 94c3 0 6 0 8 0l101 168c-9 14-15 32-15 51 0 52 42 94 94 94s94-42 94-94c0-19-6-37-16-51l101-168c3 0 6 0 8 0 2 0 4 0 6 0l167 291c-10 15-16 33-16 53 0 52 42 94 93 94s94-42 94-94c0-52-42-94-94-94-2 0-4 0-6 0l-166-291c10-15 16-33 16-53 0-51-42-93-94-93s-93 42-93 93c0 19 5 37 15 51l-101 168c-3 0-5 0-8 0s-6 0-8 0l-101-168c9-14 15-32 15-51 0-51-42-93-94-93z" horiz-adv-x="1000" />

<glyph glyph-name="coinmarketcap" unicode="&#xe81d;" d="M857 253a53 53 0 0 0-54-4c-20 11-30 37-30 73v110c0 53-21 90-56 100-59 17-103-55-120-82l-104-169v206c-2 48-17 76-46 85-20 5-49 3-77-40l-233-374a412 412 0 0 0-47 192c0 226 180 409 403 409s403-183 403-409v-1s0-1 0-1c2-44-12-79-39-95z m129 97v2c-2 275-223 498-493 498s-493-224-493-500 221-500 493-500a487 487 0 0 1 334 133 46 46 0 0 1 3 65 44 44 0 0 1-63 3 398 398 0 0 0-574 27l210 337v-156c0-75 29-99 53-106s62-2 101 61l116 188c3 6 7 11 10 16v-96c0-70 28-126 77-153a142 142 0 0 1 145 6c54 35 83 98 80 175z" horiz-adv-x="985" />

<glyph glyph-name="discord" unicode="&#xe81e;" d="M833 600s-95 75-208 83l-10-20c102-25 149-61 198-105-85 43-168 84-313 84-145 0-228-41-312-84 48 44 104 84 197 105l-10 20c-118-11-208-83-208-83s-107-155-125-458c107-124 271-125 271-125l34 45c-58 20-124 56-180 121 67-51 169-104 333-104s266 53 333 104c-56-65-122-101-180-121l35-45s163 1 270 125c-18 303-125 458-125 458z m-468-375c-41 0-73 37-73 83s32 84 73 84 73-38 73-84-33-83-73-83z m270 0c-40 0-72 37-72 83s32 84 72 84 73-38 73-84-32-83-73-83z" horiz-adv-x="1000" />

<glyph glyph-name="swimming" unicode="&#xe838;" d="M556 675c-8 0-21-5-28-8l-200-97c-26-12-36-51-19-75l61-82-223-174 103-33 134 44c5 2 11 3 16 3s10-1 16-3l134-44 70 24-192 278 152 76c30 15 28 41 25 57-3 14-21 34-49 34z m94-150c-55 0-100-45-100-100 0-55 45-100 100-100 55 0 100 45 100 100 0 55-45 100-100 100z m-550-350c-5 0-12-2-16-3l-84-28 0-103 100 34 134-47c6-2 11-3 16-3 5 0 11 2 16 3l134 47 134-47c6-2 11-3 16-3 5 0 11 2 16 3l134 47 150-50 0 103-134 44c-5 2-11 3-16 3s-10-1-16-3l-134-44-134 44c-6 2-11 3-16 3s-11-2-16-3l-134-44-134 44c-7 2-11 3-16 3z" horiz-adv-x="850" />

<glyph glyph-name="chrome" unicode="&#xe841;" d="M498 850c-147-1-291-67-387-186l154-237c39 111 150 182 267 170l414-22c-42 84-108 157-196 208-79 46-166 67-252 67z m-416-226c-52-79-82-173-82-274 0-250 183-457 423-494l128 252c-116-22-233 39-281 146l-188 370z m885-94l-282-15c76-89 82-221 13-317l-226-347c94-6 190 15 278 66 216 125 304 387 217 613z m-467-11c-93 0-169-76-169-169s76-169 169-169 169 76 169 169-76 169-169 169z" horiz-adv-x="1000" />

<glyph glyph-name="line-deploy" unicode="&#xe900;" d="M693 146c0-10-8-18-18-18s-17 8-17 18c0 10 8 18 17 18s18-8 18-18z m234 88c-2 11-8 16-12 18-4 2-8 3-12 3-4 0-7-1-9-1h-600c14 20 29 50 29 84 0 55-43 103-45 105l-10 10-9-11c-2-2-48-59-45-111 1-16 6-31 13-48-19 9-37 13-55 13-55 0-103-43-105-45l-10-10 11-9c2-2 55-45 106-45 2 0 4 0 5 0 31 2 58 17 77 29 8-74 72-205 216-256v-76h12c2 0 36 1 61 26 7 8 13 18 17 29 1 0 2 0 3 0 133 0 233 39 297 116 65 78 67 169 65 179z m-749-22c-2 0-3 0-5 0-28 0-59 18-77 30 17 11 45 28 76 28 31 0 60-17 76-29-15-11-42-27-70-29z m61 120c-2 30 19 65 30 81 12-16 29-45 29-75 0-31-18-60-30-77-11 15-27 42-29 71z m600-265c-50-57-123-91-217-100 40 12 87 31 126 54 64 39 89 95 96 114h38c-11-25-26-48-43-68z m-165-54c11 8 21 16 31 26 50 47 63 78 64 96h48c-10-21-33-63-82-92-17-10-37-21-61-30z m217 147h-162c-7 0-13-5-13-12s6-13 13-13h15c-2-11-12-35-56-78-70-66-140-74-141-74h0l-5 0v-3c1-23-4-40-16-52-9-10-21-14-30-17v95h-25v-20c-145 56-191 195-191 242h615c2 0 4 0 5 1 0 0 1 0 2 0 0 0 0 0 0 0 1-5 0-33-11-69z m-279 124c-15 0-28 12-28 28v26c-34 5-66 18-93 39l-19-18c-5-6-12-9-20-9s-15 3-20 9c-6 5-9 12-9 20s3 15 9 20l18 19c-21 27-34 59-39 93h-26c-15 0-28 13-28 29s12 28 28 28h26c5 34 18 66 39 93l-18 19c-6 5-9 12-9 20s3 15 9 20c5 6 12 9 20 9 0 0 0 0 0 0 8 0 15-3 20-9l19-18c27 21 59 34 93 39v26c0 15 13 28 29 28s28-12 28-28v-26c34-5 66-18 93-39l19 18c5 6 12 9 20 9 0 0 0 0 0 0 8 0 15-3 20-9 11-11 12-29 0-40l-18-18c21-28 34-60 39-94h26c15 0 28-12 28-28s-12-29-28-29h-26c-5-34-18-66-39-93l18-18c11-11 12-30 0-41-5-5-12-8-20-8s-15 3-20 8l-19 19c-27-21-59-34-93-39v-26c0-16-13-29-29-29z m-123 120l7-6c28-23 63-37 99-41l9-1v-44c0-4 3-8 8-8s8 4 8 8v44l9 1c37 4 71 18 99 41l7 6 31-31c3-3 9-3 12 0 3 3 3 9 0 12l-31 31 6 7c23 28 37 62 40 98l1 9h44c5 0 9 4 9 9s-4 8-9 8h-44l-1 9c-3 36-17 71-41 99l-6 7 32 31c3 3 3 9 0 12-2 1-4 2-6 2 0 0 0 0 0 0-3 0-5-1-6-2l-32-32-7 6c-28 24-62 38-98 41l-9 1v45c0 4-4 8-8 8s-9-4-9-8v-44l-9-1c-36-4-70-18-98-41l-7-6-32 31c-1 2-3 2-6 2 0 0 0 0 0 0-2 0-4-1-6-2-1-2-2-4-2-6s1-4 2-6l32-31-6-7c-24-28-38-63-41-99l-1-9h-44c-5 0-8-3-8-8s3-8 8-8h44l1-9c3-37 18-71 41-99l6-7-31-31c-2-2-3-4-3-6s1-5 3-6c3-3 8-3 11 0l32 31z m132-19v102l7 2c3 1 6 2 9 4l7 3 71-71-9-7c-21-17-47-28-74-31l-11-2z m20 85v-61c15 3 30 9 43 18l-43 43z m-37-85l-11 2c-27 3-53 14-74 30l-9 7 72 72 6-4c3-1 6-2 9-3l7-3v-101z m-63 42c13-9 28-15 43-18v61l-43-43z m-43 9l-7 9c-17 22-27 47-31 74l-1 11h101l2-7c1-3 3-6 4-9l4-7-72-71z m-16 74c3-15 9-30 18-43l43 43h-61z m245-74l-72 72 4 7c2 3 3 6 4 9l2 7h101l-1-12c-3-26-14-52-31-74l-7-9z m-46 74l44-43c8 14 14 28 18 43h-62z m85 37h-101l-3 7c-1 3-2 7-3 9l-4 7 72 72 7-9c16-22 27-47 30-74l2-12z m-85 21h62c-4 15-10 30-18 43l-44-43z m-121-21h-101l1 12c3 26 14 52 31 73l7 9 71-71-3-7c-2-3-3-6-4-9l-2-7z m-78 21h61l-43 43c-8-13-15-28-18-43z m99 14l-72 72 9 7c22 16 48 27 74 30l12 2v-102l-7-2c-3-1-7-2-10-4l-6-3z m-41 69l44-43v61c-16-3-30-9-44-18z m104-69l-7 3c-3 2-6 3-9 4l-7 2v102l11-2c27-3 53-14 74-30l9-7-71-72z m-3 87v-61l43 44c-13 8-28 14-43 17z" horiz-adv-x="1000" />

<glyph glyph-name="line-security" unicode="&#xe901;" d="M374 463h-247c-9 0-16-8-16-17v-145c0-10 7-17 16-17h247c9 0 16 7 16 17v145c0 9-7 17-16 17z m-4-159h-239v139h239v-139z m4-43h-247c-9 0-16-8-16-17v-134c0-10 7-17 16-17h247c9 0 16 7 16 17v134c0 9-7 17-16 17z m-4-148h-239v128h239v-128z m82 335h339v-20h-339v20z m0-108h339v-20h-339v20z m0-108h116v-20h-116v20z m0-126h116v-20h-116v20z m494 57h-37v30c0 32-16 60-40 78v367c0 10-7 18-17 18h-777c-9 0-17-8-17-18v-603c0-10 8-18 17-18h594v-51c0-9 8-17 17-17h260c9 0 17 7 17 17v180c0 10-7 17-17 17z m-57 30v-30h-19v81c12-13 19-31 19-51z m-39-30h-114v30c0 42 35 77 77 77 13 0 26-4 37-10v-97z m0 472v-97h-772v97h772z m-181-489v-109h-591v481h771v-236c-11 5-23 8-37 8-53 0-96-44-96-97v-30h-29c-10 0-18-7-18-17z m274-177h-254v175h254v-175z m-569 497h-247c-11 0-20-9-20-20v-145c0-11 9-20 20-20h247c11 0 20 9 20 20v145c0 11-9 20-20 20z m-7-159h-233v132h233v-132z m7-43h-247c-11 0-20-9-20-20v-134c0-11 9-20 20-20h247c11 0 20 9 20 20v134c0 11-9 20-20 20z m-7-148h-233v121h233v-121z m82 336h345v-27h-345v27z m0-109h345v-26h-345v26z m0-108h122v-26h-122v26z m0-126h122v-27h-122v27z m497 58h-34v26c0 31-14 61-39 80v365c0 12-10 21-21 21h-777c-11 0-20-9-20-21v-603c0-12 9-21 20-21h591v-48c0-11 9-21 20-21h260c11 0 21 10 21 21v180c0 12-10 21-21 21z m-73 68c8-13 13-27 13-42v-26h-13v68z m-791 397h764v-90h-764v90z m584-486v-105h-584v474h764v-228c-11 4-22 6-34 6-55 0-100-45-100-100v-27h-25c-12 1-21-8-21-20z m180 112v-91h-106v26c0 40 32 73 73 73 11 0 23-3 33-8z m94-286h-247v168h247v-168z m-127 80v-50h25v50c11 5 18 16 18 28 0 16-14 30-31 30s-30-14-30-30c0-12 7-23 18-28z m12 55c-15 0-27-12-27-27 0-12 8-22 18-26v-48h18v48c11 4 18 14 18 26 0 15-12 27-27 27z" horiz-adv-x="1000" />

<glyph glyph-name="line-data" unicode="&#xe902;" d="M854 207v263c36 5 63 36 63 73 0 41-34 74-74 74-23 0-43-10-57-26l-223 130c1 5 1 9 1 14 0 41-33 74-74 74s-74-33-74-74c0-5 1-11 2-17l-222-126c-14 16-34 25-55 25-41 0-74-33-74-74 0-35 25-66 59-73v-264c-34-6-59-37-59-72 0-41 33-74 74-74 21 0 41 9 55 24l221-128c-1-3-1-7-1-11 0-41 33-74 74-74s74 33 74 74c0 4 0 8-1 13l222 130c14-18 35-28 58-28 40 0 74 33 74 74 0 37-27 68-63 73z m-11-122c-27 0-49 22-49 49s22 48 49 48c27 0 48-22 48-48s-21-49-48-49z m-353-189c-27 0-49 22-49 49 0 27 22 49 49 49 27 0 49-22 49-49 0-27-22-49-49-49z m-349 189c-27 0-49 22-49 49s22 48 49 48 48-22 48-48-21-49-48-49z m0 507c27 0 48-22 48-49s-21-49-48-49-49 22-49 49 22 49 49 49z m349 192c27 0 49-22 49-49s-22-48-49-48c-27 0-49 22-49 48s22 49 49 49z m353-192c27 0 48-22 48-49s-22-48-48-48c-27 0-49 22-49 48s22 49 49 49z m-508-147l127 222c5-2 9-4 14-4v-252c-16-3-31-12-42-25l-99 59z m204-107c0-27-22-48-49-48-27 0-48 22-48 48s22 49 48 49c27 0 49-22 49-49z m-60-73v-117h-266c0 4-1 8-3 11l225 130c12-13 27-21 44-24z m22 147v250c6 1 12 2 17 5l129-223-100-58c-12 14-28 23-46 26z m-292 159l219 124c4-5 8-10 13-15l-128-222-103 60c3 8 5 16 5 25 0 10-2 19-6 28z m5-448h265v-105c-23-3-43-17-54-37l-216 125c2 5 4 11 5 17z m290 0h266c0-4 1-9 3-13l-218-128c-11 19-29 32-50 36v105z m178 312l104 61c11-13 26-22 42-25v-264c-4-1-8-2-12-4l-134 232z m-13 22l-130 223c6 5 11 11 14 17l220-127c-3-8-4-17-4-27 0-8 1-17 4-25l-104-61z m-369-22l-133-232c-5 2-10 3-15 4v263c18 3 34 12 46 26l102-61z m22-12l99-58c-3-9-5-17-5-26 0-10 2-19 6-28l-225-130c-2 3-5 6-9 9l134 233z m448-275h-266v118c17 3 32 12 43 26l226-133c-1-4-2-7-3-11z m-206 190c0 9-2 18-5 26l101 58 135-232c-4-3-7-6-10-9l-226 132c4 8 5 17 5 25z" horiz-adv-x="1000" />

<glyph glyph-name="line-expose" unicode="&#xe903;" d="M893 129c-3 57-22 121-56 187 0 0 0 0 0 0 2 41-3 82-15 122-3 11-7 21-12 32-3 8-12 12-20 8s-12-12-8-20c4-10 7-19 10-29 35-111 5-231-77-313-52-53-120-84-194-90-12 6-24 13-35 21 0 9 4 20 14 29l91 86c14 13 18 34 11 52l-24 57c-2 6-6 11-10 15l-10 9c-3 4-5 8-4 13 0 4 3 8 6 11l45 32c5 3 11 4 16 1l24-14c17-9 38-7 53 5 24 21 34 52 27 83-6 31-29 54-59 63l-18 5c-4 1-8 4-9 8-2 4-2 8-1 11 7 10 9 24 3 35l-38 72c-1 3-2 6-3 9 43-15 82-40 116-73 6-7 12-13 17-20 6-6 16-7 22-1s8 15 2 22c-6 7-12 14-19 21-65 65-151 100-242 100-7 0-13 0-20 0-65 34-130 53-186 56-60 3-110-13-145-47-51-52-62-137-29-240 9-30 22-61 38-91 0-7-1-13-1-20 0-91 36-177 101-242s150-100 242-100c6 0 13 0 19 1 53-28 104-45 152-53 17-3 33-4 49-4 54 0 99 16 130 48 33 34 50 83 47 143z m-318 477l38-72c0 0 0-1-1-1-1-1-2-3-3-5-5-12-5-26 0-38s17-22 30-25l17-5c19-6 33-21 38-40s-3-39-18-52c-5-5-12-5-18-2l-23 13c-16 9-35 8-50-2l-44-32c-11-8-19-20-20-34s4-27 14-37l9-9c2-2 3-3 4-5l24-57c2-6 1-13-4-18l-91-86c-10-9-17-21-21-34-1 1-3 2-4 3-10 7-20 14-29 21-7 5-17 4-22-3s-4-16 3-21c10-8 20-15 31-22 6-5 13-9 19-13 0-1 0-1 1-1-37 4-71 15-104 32 3 15 1 30-6 46l-6 15c1-1 2-1 3-1 5 0 9 2 12 5 6 7 5 16-1 22-8 8-17 16-25 24 0 1-1 1-1 2l32 69c8 16 6 34-3 48s-24 23-41 23c-7 0-13 3-16 9-3 5-4 12-1 18l26 49c10 21 5 46-13 61l-28 23c-5 4-7 11-6 18l20 86c8 7 17 13 26 19l108-57c5-2 10-3 15-3 9 0 17 3 23 10 10 11 11 27 3 39 0 0 0 0 0 1l42 61c18-1 36-4 53-8 0-13 3-24 8-34z m-311-157l28-24c7-5 9-14 5-22l-25-50c-8-15-8-33 2-48 9-15 25-24 42-24 6 0 12-3 16-8 3-6 4-12 1-18l-28-59c-49 53-90 109-120 166 5 64 30 125 72 174l-9-38c-4-19 2-37 16-49z m214 198l-31-44c-7-11-7-25 0-36 0 0 0 0 0 0 0 0 0-1 0-1s0 0 0 0l-92 48c38 19 80 30 123 33z m-333-191c-29 92-21 166 22 209 27 27 69 41 121 38 40-2 84-13 131-33-62-14-120-46-166-92s-78-104-92-166c-6 15-11 29-16 44z m41-158c30-46 66-92 108-136 0-6 1-13 3-20l21-49c2-5 3-10 4-16-17 12-32 24-47 39-50 50-81 114-89 182z m637-290c-33-34-86-46-152-35-32 5-66 15-100 29 62 14 120 46 166 92 47 47 78 105 92 166 20-47 31-92 33-132 2-51-11-93-39-120z" horiz-adv-x="1000" />

<glyph glyph-name="line-validation" unicode="&#xe904;" d="M507 741c-202 0-367-165-367-367 0-110 49-213 133-283l-114-115c-4-4-6-9-6-14s2-11 6-15c4-4 9-6 15-6s10 2 14 6l119 119c60-39 129-60 201-60 202 0 367 165 367 367s-165 368-368 368z m327-367c0-180-147-326-326-326-180 0-326 146-326 326s146 326 326 326c179 0 326-147 326-326z m-327-69c12 0 21 9 21 21v186c0 12-9 21-21 21s-20-9-20-21v-186c0-12 9-21 20-21z m30-66c0-16-13-29-30-29s-29 13-29 29c0 16 13 29 29 29s30-13 30-29z" horiz-adv-x="1000" />

<glyph glyph-name="line-search" unicode="&#xe905;" d="M624 608c-4-6-3-15 3-19l164-119c2-2 5-3 8-3 4 0 8 2 11 6 4 6 3 15-3 19l-164 119c-6 4-15 3-19-3z m320-74l-304 221c-3 2-6 3-10 2-3 0-6-2-9-5l-132-182-19 115c0 3-2 6-5 9s-7 3-10 2l-370-59c-8-1-13-8-12-15l73-457c0-3 2-6 5-9 2-1 5-2 8-2 1 0 1 0 2 0l85 14v-146c0-7 6-13 14-13h375c8 0 14 6 14 13v39c9 5 18 11 26 18l34-34-11-11c-5-5-5-14 0-19l123-122c2-3 6-4 9-4 4 0 7 1 10 4l41 41c3 2 4 6 4 9s-1 7-4 10l-123 123c-2 2-6 4-9 4s-7-2-10-4l-11-11-34 33c27 31 42 70 42 112 0 4-1 9-1 13l212 292c5 7 3 15-3 19z m-195-488l103-103-22-22-103 104 22 21z m-647 566l344 55 21-128-30-41h-177c-7 0-14-6-14-14v-55l-40-7c-7-1-12-8-11-15 1-7 7-11 13-11 1 0 2 0 2 0l36 6v-90l-22-3c-7-2-12-8-11-16 1-6 7-11 13-11 1 0 2 0 2 0l18 3v-90l-76-12-68 429z m172-576v435h170c0 0 0 0 0 0s0 0 0 0h153c0 0 0 0 0 0s0 0 0 0h25v-99c-19 7-38 11-59 11-3 0-7 0-11-1-1 1-2 1-3 1h-202c-8 0-14-6-14-14 0-7 6-14 14-14h124c-15-9-28-21-40-34-13-16-23-35-30-54h-54c-8 0-14-6-14-14 0-7 6-14 14-14h46c-1-9-2-19-2-29 0-21 3-40 10-59h-54c-8 0-14-6-14-14 0-7 6-13 14-13h67c30-54 87-87 149-87 21 0 40 3 59 10v-12h-348z m392 71c0 0 0 0 0 0-11-11-23-20-37-27-20-10-42-16-66-16-55 0-104 31-129 80 0 0 0 0 0 0-11 20-16 42-16 66 0 13 2 26 5 39 6 20 16 38 29 54 27 33 68 52 111 52 23 0 45-5 66-16 44-22 73-65 78-114 0 0 0 0 0 0 1-5 1-10 1-15 1-39-15-76-42-103z m62 153c-12 42-40 77-79 99v71l74-53c2-2 5-3 8-3 4 0 8 2 11 6 4 6 3 14-3 19l-90 65v20c0 8-6 14-14 14h-33l-27 19c-6 5-15 3-19-3-4-5-3-12 0-16h-86l22 30c0 0 0 0 0 0l143 198 282-205-189-261z" horiz-adv-x="1000" />

<glyph glyph-name="line-test" unicode="&#xe906;" d="M582-63h-372c-30 0-54 24-54 54v678c0 30 24 54 54 54h433l143-148c4-3 10-3 13 0 4 3 4 9 0 13l-148 153h-441c-40 0-73-33-73-73v-677c0-40 33-73 73-73h372c5 0 9 4 9 9 0 6-4 10-9 10z m128 609c-30 0-54 24-54 54v61c0 5-4 9-9 9s-9-4-9-9v-61c0-40 33-73 73-73h122v-282c0-5 4-9 9-9s9 4 9 9v292c0 5-4 9-9 9-1 0-2-1-4-1-1 0-2 1-4 1h-124z m-325-69c0 10-8 18-18 18h-74c-10 0-18-8-18-18v-74c0-10 8-18 18-18h74c10 0 18 8 18 18v74z m-18-74h-74v74h74l0-74z m0-9v0z m-74-340h74c10 0 18 8 18 18v74c0 10-8 18-18 18h-74c-10 0-18-8-18-18v-74c0-10 8-18 18-18z m74 18v0z m-74 74h74v-74h-74v74z m27 70l64 98c2 4 1 10-3 13-4 2-10 1-13-3l-51-79-29 27c-3 3-9 3-12 0s-4-10 0-13l44-43z m120 256h166c5 0 9 4 9 9s-4 9-9 9h-166c-5 0-9-4-9-9s4-9 9-9z m0-83h86c5 0 9 4 9 9s-4 9-9 9h-86c-5 0-9-4-9-9s4-9 9-9z m261 18h-115c-5 0-9-4-9-9s4-9 9-9h115c5 0 9 4 9 9s-4 9-9 9z m-261-264h86c5 0 9 4 9 9s-4 9-9 9h-86c-5 0-9-4-9-9s4-9 9-9z m216 9c0 5-4 9-9 9h-61c-5 0-9-4-9-9s4-9 9-9h61c5 0 9 4 9 9z m-216 72h86c5 0 9 4 9 9s-4 9-9 9h-86c-5 0-9-4-9-9s4-9 9-9z m270 9c0 5-4 9-9 9h-115c-5 0-9-4-9-9s4-9 9-9h115c5 0 9 4 9 9z m-9 92h-261c-5 0-9-4-9-9s4-9 9-9h261c5 0 9 4 9 9s-4 9-9 9z m-249-266h166c5 0 9 4 9 9s-4 9-9 9h-166c-5 0-9-4-9-9s4-9 9-9z m130-119h-372c-28 0-51 23-51 51v678c0 28 23 51 51 51h432l142-147c3-2 6-3 9-3s6 1 8 3c5 5 5 12 1 17l-150 154h-442c-42 0-76-34-76-75v-678c0-42 34-76 76-76h372c7 0 12 6 12 12 0 7-5 13-12 13z m77 660v61c0 6-5 12-12 12s-12-6-12-12v-61c0-42 34-76 76-76h120v-279c0-7 5-12 12-12s12 5 12 12v292c0 6-6 12-12 12-2 0-3-1-4-1-2 0-3 1-4 1h-124c-29 0-52 23-52 51z m-271-123c0 11-9 21-21 21h-74c-11 0-21-9-21-21v-74c0-12 9-22 21-22h74c12 0 22 10 22 22v74z m-24-71h-68v67h68v-67z m-71-355h74c12 0 22 10 22 21v74c0 12-10 22-22 22h-74c-11 0-21-10-21-22v-74c0-11 10-21 21-21z m3 92h68v-68h-68v68z m25 69l65 100c2 3 3 6 2 9s-3 6-5 8c-2 1-5 2-7 2-4 0-8-2-10-6l-49-76-26 25c-3 2-6 4-9 4-3 0-6-2-8-4s-4-5-4-9c0-3 2-6 4-8l47-45z m119 257h166c6 0 12 5 12 12s-6 12-12 12h-166c-6 0-12-5-12-12s6-12 12-12z m0-83h86c6 0 12 6 12 12s-6 12-12 12h-86c-6 0-12-5-12-12s6-12 12-12z m261 24h-115c-6 0-12-5-12-12s6-12 12-12h115c7 0 12 6 12 12s-5 12-12 12z m-261-270h86c6 0 12 5 12 12s-6 12-12 12h-86c-6 0-12-5-12-12s6-12 12-12z m219 12c0 7-5 12-12 12h-61c-6 0-12-5-12-12s6-12 12-12h61c7 0 12 5 12 12z m-219 69h86c6 0 12 5 12 12s-6 12-12 12h-86c-6 0-12-5-12-12s6-12 12-12z m273 12c0 7-5 12-12 12h-115c-6 0-12-5-12-12s6-12 12-12h115c7 0 12 5 12 12z m-12 95h-261c-6 0-12-5-12-12s6-12 12-12h261c7 0 12 5 12 12s-5 12-12 12z m-249-272h166c6 0 12 5 12 12s-6 12-12 12h-166c-6 0-12-6-12-12s6-12 12-12z m446 110l-42 42c-7 7-17 12-28 12-10 0-20-4-27-12l-192-191v-81c0-4 2-7 5-10 2-3 6-4 9-4l86-1 190 189c7 8 11 18 11 28 0 10-4 20-12 28z m-122-17l24-23-123-122-23 23 122 122z m-77-204l-66 0v61l4 4 63-64-1-1z m19 19l-23 23 122 122 23-23-122-122z m163 163l-24-24-64 64 25 24c3 3 6 4 10 4s8-1 11-4l42-42c6-6 6-16 0-22z m15 37l-42 42c-14 14-38 14-52 0l-190-191v-79c0-3 1-6 3-8 2-2 5-3 8-3l84-1 189 188c7 7 11 16 11 26s-4 19-11 26z m-52-78l-127-127-27 28 127 126 27-27z m-167-87l-27 28 126 127 28-28-127-127z m-47-56v65l7 6 68-68-5-4-70 1z m253 182l-26-26-68 68 26 26c7 7 19 7 26 0l42-42c7-7 7-19 0-26z" horiz-adv-x="1000" />

<glyph glyph-name="line-doc" unicode="&#xe907;" d="M97 748v-807h806v807h-806z m521-20v-767h-241v767h241z m-501 0h240v-767h-240v767z m766-767h-245v767h245v-767z m-646 232c-51 0-93-41-93-93s42-93 93-93c51 0 93 42 93 93s-42 93-93 93z m0-166c-40 0-73 33-73 73s33 73 73 73 73-33 73-73-33-73-73-73z m261 166c-52 0-93-41-93-93s41-93 93-93c51 0 93 42 93 93s-42 93-93 93z m0-166c-41 0-73 33-73 73s32 73 73 73 73-32 73-73-33-73-73-73z m265 166c-51 0-93-41-93-93s42-93 93-93c51 0 93 42 93 93s-42 93-93 93z m0-166c-40 0-73 33-73 73s33 73 73 73 73-32 73-73-33-73-73-73z m-438 669h-171v-328h171v328z m-20-308h-131v288h131v-288z m281 308h-172v-328h172v328z m-20-308h-132v288h132v-288z m-473 363v-813h814v813h-814z m261-787h-234v760h234v-760z m261 0h-234v760h234v-760z m265 0h-239v760h239v-760z m-643 40c53 0 96 43 96 96s-43 97-96 97-96-44-96-97 43-96 96-96z m0 166c38 0 70-31 70-70s-32-69-70-69c-38 0-70 31-70 69s32 70 70 70z m261-166c53 0 96 43 96 96s-43 97-96 97c-53 0-97-44-97-97s44-96 97-96z m0 166c38 0 69-31 69-70s-31-69-69-69c-39 0-70 31-70 69s31 70 70 70z m265-166c53 0 96 43 96 96s-43 97-96 97c-53 0-96-44-96-97s43-96 96-96z m0 166c38 0 70-31 70-70s-32-69-70-69c-38 0-70 31-70 69s32 70 70 70z m-434 529h-179v-335h179v335z m-27-308h-125v281h125v-281z m287 308h-178v-335h178v335z m-27-308h-125v281h125v-281z m288 308h-179v-335h179v335z m-27-308h-125v281h125v-281z m23 305h-171v-328h171v328z m-20-308h-131v288h131v-288z" horiz-adv-x="1000" />

<glyph glyph-name="line-opensource" unicode="&#xe908;" d="M953 290l-157 108 141 98-280 189-93-62 14-22 79 52 233-158-118-81-190 130-15-22 182-125-244-168-237 164 182 121-15 22-190-127-114 79 237 165 66-52 17 21-82 64-284-198 136-95-137-91 157-108v-129l269-170 283 142v146l160 107z m-180 92l133-92-249-165-128 88 244 169z m-528-5l238-164-110-76-241 165 113 75z m22-201l106-72 125 87v-256l-230 145v96z m499-122l-242-121v251l133-92 109 73v-111z m-268 682v-299h26v295l52-42 17 21-69 56v1h-1l-14 11-84-68 17-21z" horiz-adv-x="1000" />

<glyph glyph-name="circle-chevron-up" unicode="&#xe909;" d="M457 620l-253-254c-14-14-14-36 0-50l253-253c14-14 37-14 51 0l57 57c13 14 13 36 0 50l-172 171 172 171c13 14 13 37 0 51l-57 57c-14 14-37 14-51 0z m-457-279c0 237 192 429 429 429s428-192 428-429-191-429-428-429-429 193-429 429z" horiz-adv-x="857.4" />

<glyph glyph-name="circle-chevron-right" unicode="&#xe90a;" d="M400 63l254 253c13 14 13 36 0 50l-254 254c-14 14-36 14-50 0l-57-57c-14-14-14-37 0-51l171-171-171-171c-14-14-14-36 0-50l57-57c14-14 36-14 50 0z m457 278c0-236-192-429-428-429s-429 193-429 429 192 429 429 429 428-192 428-429z" horiz-adv-x="857.4" />

<glyph glyph-name="flag" unicode="&#xe90b;" d="M464 283v107c-68-6-150-33-214-65v-103c65 30 145 56 214 61z m0 233v110c-70-3-153-36-214-70v-106c66 35 145 64 214 66z m465-258v103c-51-25-140-63-215-40v125c-7 2-14 5-21 8-65 33-117 63-201 63-9 0-18-1-28-2v-124h11c84 0 153-30 218-62 7-3 14-6 21-8v-105c15-6 32-9 51-9 62 0 129 33 164 51z m0 238v106c-45-24-108-51-171-51v0c-15 0-30 1-44 4v-109c75-21 164 22 215 50z m-750 202c0-26-15-49-36-61v-707c0-10-8-18-18-18h-36c-10 0-18 8-18 18v707c-21 12-35 35-35 61 0 40 32 72 71 72s72-32 72-72z m821-35v-426c0-14-8-26-19-32-3-1-6-3-10-5-36-19-120-65-206-65-33 0-62 7-88 20l-16 8c-56 28-101 50-169 50-81 0-194-42-259-81-6-3-13-5-19-5s-12 2-18 4c-11 7-17 19-17 32v414c0 12 6 24 17 30 36 22 162 91 279 91 93 0 169-34 233-65 15-7 31-11 50-11 66 0 138 42 173 63 7 4 13 7 17 9 11 6 24 5 35-1 10-6 17-18 17-30z" horiz-adv-x="1036.1" />

<glyph glyph-name="download" unicode="&#xe90c;" d="M714 91c0 20-16 36-35 36s-36-16-36-36 16-36 36-36 35 17 35 36z m143 0c0 20-16 36-36 36s-35-16-35-36 16-36 35-36 36 17 36 36z m72 125v-178c0-30-24-54-54-54h-821c-30 0-54 24-54 54v178c0 30 24 54 54 54h259l75-76c21-20 48-31 76-31s56 11 76 31l76 76h259c30 0 54-24 54-54z m-182 318c6-14 3-29-8-39l-250-250c-6-8-16-11-25-11s-18 3-25 11l-250 250c-10 10-13 25-8 39 6 12 19 21 33 21h143v250c0 20 16 36 36 36h143c19 0 35-16 35-36v-250h143c15 0 28-9 33-21z" horiz-adv-x="928.7" />

<glyph glyph-name="twitter" unicode="&#xe90d;" d="M1000 651c-37-16-76-27-118-32 43 25 75 66 90 113-39-23-83-40-130-49-37 40-91 65-150 65-113 0-205-92-205-205 0-16 2-32 6-47-171 8-322 90-423 214-18-30-28-65-28-103 0-72 36-134 91-171-33 1-65 10-93 26v-3c0-99 71-182 165-201-17-5-36-7-54-7-13 0-26 1-38 3 26-81 101-140 191-142-70-55-158-88-254-88-16 0-32 1-49 3 92-58 199-92 315-92 378 0 584 312 584 583 0 9 0 17-1 26 40 29 75 65 103 106z" horiz-adv-x="1000" />

<glyph glyph-name="github" unicode="&#xe90e;" d="M500 841c-276 0-500-224-500-500 0-221 143-408 342-474 25-5 34 10 34 24 0 12 0 43-1 85-139-30-168 67-168 67-23 58-56 73-56 73-45 31 4 30 4 30 50-3 76-51 76-51 45-77 118-55 146-42 5 33 17 55 32 67-111 13-228 56-228 247 0 55 19 99 51 134-5 13-22 64 5 133 0 0 42 13 137-52 40 12 83 17 125 17 43 0 85-5 125-17 95 65 137 52 137 52 27-69 10-120 5-133 32-35 51-79 51-134 0-192-116-234-228-246 18-15 34-46 34-93 0-67-1-121-1-137 0-13 9-29 35-24 200 66 343 253 343 474 0 276-224 500-500 500z" horiz-adv-x="1000" />

<glyph glyph-name="search" unicode="&#xe90f;" d="M983-72l-225 226c56 72 90 163 90 262 0 233-189 423-423 423s-422-190-422-423c0-233 189-423 422-423 99 0 190 34 262 91l225-226c10-10 23-14 36-14s25 4 35 14c20 19 20 51 0 70z m-881 488c0 178 145 323 323 323s324-145 324-323c0-89-36-168-93-227-1-1-1-1-2-2s-1-1-2-2c-58-57-138-93-227-93-178 0-323 146-323 324z" horiz-adv-x="1000" />

<glyph glyph-name="chevron-circle-left" unicode="&#xe910;" d="M457 620l-253-254c-14-14-14-36 0-50l253-253c14-14 37-14 51 0l57 57c13 14 13 36 0 50l-172 171 172 171c13 14 13 37 0 51l-57 57c-14 14-37 14-51 0z m-457-279c0 237 192 429 429 429s428-192 428-429-191-429-428-429-429 193-429 429z" horiz-adv-x="857.4" />

<glyph glyph-name="chevron-circle-down" unicode="&#xe911;" d="M150 370l254-254c14-14 36-14 50 0l253 254c14 14 14 36 0 50l-57 57c-14 14-36 14-50 0l-171-171-172 171c-14 14-36 14-50 0l-57-57c-14-14-14-36 0-50z m279-457c-237 0-429 192-429 428s192 429 429 429 428-192 428-429-192-428-428-428z" horiz-adv-x="857.4" />

<glyph glyph-name="line-admin" unicode="&#xe912;" d="M926-21h-844v720h844v-720z m-818 27h791v666h-791v-666z m-12 521h817v-27h-817v27z m696-383h-145v13c0 86-58 141-146 141-42 0-78-13-102-38s-37-60-37-103v-13h-145v13c0 159 129 288 288 288s287-129 287-288v-13z m-119 27h92c-7 137-121 247-260 247s-254-110-261-247h92c5 94 69 154 165 154 99 0 166-61 172-154z m-354 187l19 19 78-84-19-18-78 83z m268-63l81 84 19-19-81-83-19 18z m-94-116h100v-23h-100v23z m-323 427h86c6 0 12 6 12 12s-6 12-12 12h-86c-6 0-12-5-12-12s6-12 12-12z m261 24h-115c-6 0-12-5-12-12s6-12 12-12h115c7 0 12 6 12 12s-5 12-12 12z m4-552h-261c-7 0-12-5-12-12s5-12 12-12h261c6 0 12 5 12 12s-6 12-12 12z m403 0h-261c-7 0-12-5-12-12s5-12 12-12h261c7 0 12 5 12 12s-5 12-12 12z m-65 466h74c12 0 22 10 22 22v73c0 12-10 22-22 22h-74c-11 0-21-10-21-22v-74c0-11 10-21 21-21z m3 92h68v-67h-68v67z" horiz-adv-x="1000" />

<glyph glyph-name="line-app" unicode="&#xe913;" d="M926-21h-844v720h844v-720z m-818 27h791v666h-791v-666z m-12 554h817v-26h-817v26z m567 134h24v-151h-24v151z m-497-447l177-106c3-1 5-2 8-2 5 0 10 3 13 7 4 8 2 17-5 21l-156 93 156 93c7 4 10 13 5 21v0c-4 7-13 9-21 5l-177-106z m474-101c3-4 8-7 13-7 2 0 5 1 7 2l178 106c5 2 7 7 7 13s-2 10-7 13l-178 105c-7 5-16 2-21-5s-2-17 6-21l155-93-155-92c-7-4-10-13-5-21v0z m-80 228l-142-211c-4-7-3-17 4-21 3-2 6-3 9-3 5 0 9 2 12 7l142 211c5 7 3 17-4 21s-16 3-21-4v0z m199 242c0-10-9-19-20-19s-19 9-19 19c0 11 9 20 19 20s20-9 20-20z m56 0c0-10-9-19-20-19s-19 9-19 19c0 11 9 20 19 20s20-9 20-20z m58 0c0-10-8-19-19-19s-19 9-19 19c0 11 8 20 19 20s19-9 19-20z" horiz-adv-x="1000" />

<glyph glyph-name="phone" unicode="&#xe914;" d="M500 841c-178 0-357-32-421-95-54-53-72-146-78-205 0 0-1-6-1-8 0-24 19-42 42-42 2 0 103 8 163 13 2 0 3 0 4 1 23 0 41 19 41 42l0 82c0 25 21 45 46 45h408c25 0 46-20 46-45l0-82c0-23 18-42 41-42 1-1 3-1 4-1 60-5 161-13 163-13 23 0 42 18 42 42 0 2-1 8-1 8-6 59-24 152-77 205-65 63-244 95-422 95z m0-542c-46 0-83-37-83-83s37-83 83-83 83 37 83 83-37 83-83 83z m-62 188v52c0 29-24 52-53 52s-52-23-52-52v-52l-281-300c-19-19-31-46-31-75v-83c0-47 37-84 83-84h21v-52c0-29 23-52 52-52s52 23 52 52l0 52h542v-52c0-29 23-52 52-52s52 23 52 52v52h21c46 0 83 37 83 84v83c0 29-12 56-31 75l-281 300v52c0 29-24 52-52 52s-52-23-52-52v-52h-125z m62-104c92 0 167-75 167-167s-75-167-167-167-167 75-167 167 75 167 167 167z" horiz-adv-x="1000" />

<glyph glyph-name="users" unicode="&#xe972;" d="M750 89v51c69 39 125 136 125 232 0 156 0 282-187 282s-188-126-188-282c0-96 56-193 125-232v-51c-212-18-375-122-375-248h875c0 126-163 230-375 248z m-430-25c54 36 121 63 195 79-15 17-28 37-40 58-30 54-45 113-45 171 0 84 0 164 30 229 29 63 81 102 155 116-16 75-60 124-177 124-188 0-188-126-188-281 0-97 56-194 125-232v-52c-212-17-375-121-375-247h273c14 12 29 24 47 35z" horiz-adv-x="1125" />

<glyph glyph-name="chat" unicode="&#xf03d;" d="M0 480q0 107 68 199t186 145 255 53q104 0 198-32t162-84 108-127 41-154q0-65-26-126t-73-109-109-86-140-57-161-20q-103 0-194 30l-116-81q-65-42-91-25t-11 97l23 121q-57 53-88 119t-32 137z m650-468q118 23 215 82t158 145 75 186q89-35 142-102t54-147q0-49-22-96t-62-83l17-86q10-55-8-67t-64 17l-82 57q-63-21-136-21-87 0-163 31t-124 84z" horiz-adv-x="1294.4" />

<glyph glyph-name="sitemap" unicode="&#xf0e8;" d="M1000 154v-179q0-22-16-38t-38-16h-178q-22 0-38 16t-16 38v179q0 22 16 38t38 15h53v107h-285v-107h53q23 0 38-15t16-38v-179q0-22-16-38t-38-16h-178q-23 0-38 16t-16 38v179q0 22 16 38t38 15h53v107h-285v-107h53q23 0 38-15t16-38v-179q0-22-16-38t-38-16h-178q-23 0-38 16t-16 38v179q0 22 16 38t38 15h53v107q0 29 21 51t51 21h285v107h-53q-23 0-38 16t-16 37v179q0 22 16 38t38 16h178q23 0 38-16t16-38v-179q0-22-16-37t-38-16h-53v-107h285q29 0 51-21t21-51v-107h53q23 0 38-15t16-38z" horiz-adv-x="1000" />

<glyph glyph-name="exchange" unicode="&#xf0ec;" d="M1000 189v-107q0-7-5-12t-13-6h-768v-107q0-7-5-12t-13-6q-6 0-13 6l-178 178q-5 6-5 13 0 8 5 13l179 178q5 5 12 5 8 0 13-5t5-13v-107h768q7 0 13-5t5-13z m0 304q0-8-5-13l-179-178q-5-6-12-6-8 0-13 6t-5 12v107h-768q-7 0-13 6t-5 12v107q0 8 5 13t13 5h768v107q0 8 5 13t13 5q6 0 13-5l178-178q5-5 5-13z" horiz-adv-x="1000" />

<glyph glyph-name="terminal" unicode="&#xf120;" d="M327 302l-261-261q-5-5-12-5t-13 5l-28 28q-6 6-6 13t6 13l219 219-219 220q-6 5-6 12t6 13l28 28q5 6 13 6t12-6l261-260q5-5 5-13t-5-12z m602-256v-35q0-8-5-13t-13-5h-536q-8 0-13 5t-5 13v35q0 8 5 13t13 5h536q8 0 13-5t5-13z" horiz-adv-x="928.6" />

<glyph glyph-name="rocket" unicode="&#xf135;" d="M804 600q0 22-16 38t-38 16-38-16-16-38 16-38 38-16 38 16 16 38z m125 161q0-139-43-240t-141-202q-45-44-109-98l-11-211q-1-9-9-15l-214-125q-4-2-9-2-7 0-13 5l-36 36q-7 7-4 17l47 155-156 156-154-47q-2-1-6-1-7 0-12 5l-36 36q-10 11-3 22l125 214q6 8 15 9l211 11q54 64 98 109 105 104 200 144t241 40q7 0 13-6t6-12z" horiz-adv-x="928.6" />

<glyph glyph-name="bitcoin" unicode="&#xf15a;" d="M651 493q10-102-73-144 65-16 98-58t25-119q-4-40-18-70t-36-49-54-33-68-19-81-9v-142h-86v140q-45 0-68 1v-141h-86v142q-10 0-30 1t-31 0h-112l18 102h62q27 0 32 28v225h9q-4 0-9 0v161q-7 37-50 37h-62v92l119-1q35 0 54 1v141h86v-138q45 1 68 1v137h86v-141q44-4 78-13t63-25 46-43 20-64z m-120-304q0 20-8 35t-21 26-32 17-36 11-42 5-38 1-36 0-27-1v-189q5 0 21 0t27 0 29 1 33 2 32 5 31 8 26 11 22 17 14 22 5 29z m-39 265q0 19-7 33t-17 23-27 16-31 9-34 5-32 1-31 0-22-1v-171q3 0 20 0t26 0 27 1 31 3 29 6 27 10 21 15 15 22 5 28z" horiz-adv-x="714.3" />

<glyph glyph-name="linode" unicode="&#xf2b8;" d="M184-7l113-119-19 132-121 119z m126-126l153 122-6 137-167-120z m-173 356l126-118-26 182-137 114z m139-125l177 120-8 181-196-112z m194-6l53-44-1 133-57 44q0-1 0-5t0-6-2-5l-44-29 48-39q3-3 3-49z m-393 420l143-112-38 260-156 96z m578-370l8 130-128-91 1-134z m-422 254l208 108-11 246-236-91z m476-204l11 130-126 79-1-58 80-53q3-2 2-5l-4-67z m106 78l17 124-100-72-11-127z m-105-93l-39 27-5-65q0-3-2-5l-130-104q-4-3-8 0l-55 46 4-90q0-3-2-4l-164-131q-2-1-3-1-5 1-5 2l-127 135q-2 2-33 154-1 4 3 6l34 21q-52 48-53 51l-40 196q-1 4 3 7l53 25q-75 56-76 60l-53 260q-1 6 4 8l241 75q3 0 5-1l177-85q3-2 3-5l11-258q0-4-3-6l-66-34 70-47q3-1 3-5l3-68 67 41q3 2 7 0l46-31 2 61q0 3 3 5l115 70q3 2 6 0l137-75q2-2 2-4t-3-33-10-70-5-39q0-3-3-4l-106-85q-4-3-8 0z" horiz-adv-x="857.1" />
</font>
</defs>
</svg>
