<?xml version="1.0" encoding="utf-8"?>
<!-- Generator: Adobe Illustrator 23.0.6, SVG Export Plug-In . SVG Version: 6.00 Build 0)  -->
<svg version="1.1" id="Layer_1" xmlns="http://www.w3.org/2000/svg" xmlns:xlink="http://www.w3.org/1999/xlink" x="0px" y="0px"
	 viewBox="0 0 371 344" style="enable-background:new 0 0 371 344;" xml:space="preserve">
<style type="text/css">
	.st0{fill:#FFFFFF;}
	.st1{fill:#FF5646;}
	.st2{fill:#B33B30;}
	.st3{fill:#332E27;}
	.st4{opacity:0.2;fill:#332E27;enable-background:new    ;}
	.st5{fill:#595147;}
</style>
<ellipse class="st0" cx="161.5" cy="292.7" rx="116" ry="46.9"/>
<polygon class="st1" points="165.4,86.2 165.4,112.1 233.4,152.1 245.7,146.1 235.5,126.2 "/>
<polygon class="st2" points="169.2,83.3 238.5,123.6 249.5,144 245.7,146.1 235.5,126.2 165.4,86.2 "/>
<polygon class="st1" points="171.4,48.4 171.4,73.1 241.9,32.7 251.6,14.5 240.2,7.7 "/>
<polygon class="st2" points="236.3,4.3 168.4,44.2 171.4,48.4 240.2,7.7 "/>
<polygon class="st1" points="79.2,43.8 89.8,38.3 159.9,77.3 160.3,101.9 89.8,62.9 "/>
<polygon class="st2" points="95.8,34 162,72.6 164.1,76 159.9,77.3 89.8,38.3 "/>
<polygon class="st1" points="165.4,122.8 95.4,162.7 85.6,180.9 96.6,188.6 166.7,147.8 "/>
<polygon class="st2" points="91.1,159.7 80.5,178 85.6,180.9 95.4,162.7 165.4,122.8 162,119.4 "/>
<polygon class="st2" points="159.9,77.3 160.3,101.9 165,99.8 164.1,76 "/>
<polygon class="st2" points="168.4,44.2 171.4,48.4 171.4,73.1 165.4,70.9 "/>
<path class="st3" d="M169.6,307.3L169.6,307.3c-2.5,1-5.3,1.1-7.8,0.1l-0.2-0.1v-272h8V307.3z"/>
<polygon class="st4" points="166.7,290.5 215.1,222.6 156.1,237 142.9,240.4 134,235.7 148.4,225.9 226.1,206.8 232.5,195.8 
	171.8,168.6 195.6,160.6 242.7,181.8 264.8,153.8 268.2,155 265.2,163.1 335.3,145.7 347.6,149.1 333.2,159.7 252.5,181.4 
	248.7,186.5 295.8,208.1 297.9,218.3 281.8,223.8 235.9,203.9 168.8,297.7 "/>
<path class="st3" d="M161.6,35.3c0-1.2,1.8-2.2,4-2.2c2.3,0,4,1,4,2.2"/>
<ellipse class="st5" cx="165.7" cy="35.4" rx="3.4" ry="1.8"/>
<path class="st0" d="M98,56.1L98,56.1l2.7-5.8l1.2,0.7l-4.3,9l-1.2-0.8l1-6.6l0,0l-2.9,5.5l-1.2-0.7l2-10.1l1.2,0.7l-1.4,6.5l0,0
	l3-5.6l0.9,0.5L98,56.1z"/>
<path class="st0" d="M101.9,58l-1.1,4l-1.4-0.8l3-9.9l2.2,1.2c0.7,0.4,1.1,0.9,1.4,1.7c0.3,0.7,0.3,1.6,0,2.5
	c-0.1,0.5-0.3,0.9-0.6,1.2c-0.3,0.3-0.6,0.5-1,0.5c0.3,0.4,0.5,0.8,0.5,1.4c0,0.5,0,1.1-0.2,1.7l-0.2,0.7c-0.1,0.3-0.1,0.6-0.2,1
	c0,0.4,0,0.7,0,0.9v0.1l-1.4-0.9c-0.1-0.2-0.1-0.5,0-0.9s0.2-0.8,0.2-1.1l0.2-0.6c0.1-0.5,0.2-0.9,0.1-1.3c-0.1-0.3-0.3-0.6-0.5-0.8
	L101.9,58z M102.5,56.2l0.9,0.5c0.3,0.2,0.5,0.2,0.7,0c0.2-0.1,0.4-0.4,0.5-0.8c0.1-0.4,0.1-0.8,0-1.1s-0.2-0.6-0.5-0.7l-0.9-0.5
	L102.5,56.2z"/>
<path class="st0" d="M111.2,63.1c-0.3,1.3-0.8,2.3-1.5,2.9s-1.4,0.7-2.2,0.2c-0.8-0.5-1.3-1.3-1.6-2.5c-0.3-1.1-0.2-2.4,0.1-3.7
	l0.5-1.9c0.3-1.2,0.8-2.1,1.5-2.7c0.7-0.5,1.4-0.6,2.1-0.2c0.7,0.4,1.3,1.2,1.5,2.2c0.3,1.1,0.3,2.3,0,3.6L111.2,63.1z M110.2,60.3
	c0.2-0.7,0.2-1.4,0.1-2s-0.3-1-0.7-1.2c-0.4-0.2-0.7-0.1-1,0.2s-0.6,0.9-0.7,1.6l-0.5,1.9c-0.2,0.8-0.2,1.5-0.2,2.1
	c0.1,0.6,0.3,1,0.7,1.3c0.4,0.2,0.7,0.2,1.1-0.2c0.3-0.4,0.6-1,0.8-1.7L110.2,60.3z"/>
<path class="st0" d="M116.5,71.5l-1.5-0.9l-1-8.6l0,0l-1.5,7.1l-1.5-0.9l2.4-10.8l1.4,0.8l0.9,8.2l0,0l1.4-6.9l1.5,0.8L116.5,71.5z"
	/>
<path class="st0" d="M123.2,73.7c-0.3,0.4-0.7,0.6-1.2,0.7s-1.1,0-1.8-0.5c-0.8-0.5-1.5-1.4-1.8-2.6c-0.4-1.2-0.4-2.5-0.1-3.9
	l0.4-2.3c0.2-1.3,0.7-2.3,1.3-2.8c0.6-0.5,1.3-0.6,2.1-0.2c0.8,0.5,1.4,1.1,1.7,2c0.3,0.9,0.4,1.9,0.3,3.1l0,0l-1.5-0.8
	c0-0.6,0-1.1-0.1-1.5s-0.4-0.7-0.7-0.9c-0.4-0.2-0.7-0.1-1,0.2c-0.3,0.3-0.5,0.9-0.6,1.7l-0.4,2.4c-0.1,0.8-0.1,1.5,0,2.2
	c0.1,0.6,0.4,1.1,0.8,1.3c0.3,0.2,0.5,0.3,0.7,0.3s0.3,0,0.4-0.1l0.3-1.9l-1.1-0.6l0.3-1.8l2.6,1.5L123.2,73.7z"/>
<path class="st0" d="M132.8,76.7L132.8,76.7l1.7-7.4l1.6,0.9l-2.8,11.6l-1.6-1l-0.4-8.5l0,0l-2.1,7l-1.6-1l-0.1-12.9l1.5,0.9v8.3
	l0,0l2.1-7.1l1.1,0.6L132.8,76.7z"/>
<path class="st0" d="M139.9,83l-2.5-1.5l-0.6,2.4l-1.8-1.1l3.4-11.3l1.8,1l1.8,14.6l-1.9-1.1L139.9,83z M138,79.4l1.6,1l-0.5-5.1
	l0,0L138,79.4z"/>
<path class="st0" d="M145,80.9L145,80.9l1.8-4.8l2,1.1l-2.9,7.1l-0.1,5l-1.9-1.2l0.2-5.1l-2.2-9.7l1.9,1.1L145,80.9z"/>
<path class="st0" d="M104.5,179.1l-1.3-15.9l3.9-2c1.4-0.7,2.5-0.9,3.3-0.6c0.8,0.3,1.3,1.1,1.4,2.5c0.1,0.7,0,1.4-0.2,2.1
	c-0.2,0.7-0.5,1.3-1,1.9c0.7-0.2,1.2,0,1.5,0.4c0.4,0.4,0.6,1.1,0.6,1.9c0.1,1.5-0.1,2.8-0.7,4s-1.6,2.2-3,3L104.5,179.1z
	 M106.3,168.3l1.3-0.7c0.6-0.3,1-0.7,1.3-1.2s0.4-1,0.3-1.5c-0.1-0.7-0.2-1-0.6-1.2c-0.3-0.1-0.8,0-1.4,0.3l-1.2,0.7L106.3,168.3z
	 M106.6,170.7l0.3,4l1.8-1.1c0.5-0.3,0.9-0.7,1.2-1.2c0.2-0.5,0.3-1,0.3-1.6c-0.1-0.7-0.2-1.1-0.5-1.3s-0.7-0.2-1.2,0.1L106.6,170.7
	z"/>
<path class="st0" d="M119.7,166.9l-3.2,1.9l-0.3,3.3l-2.5,1.5l1.9-16.9l2.5-1.3l4.7,12.7l-2.3,1.4L119.7,166.9z M116.7,165.8
	l2.1-1.2l-1.6-4.7l0,0L116.7,165.8z"/>
<path class="st0" d="M123.5,167.7l-1.5-14.3l3.4-1.8c1.1-0.6,2-0.5,2.9,0.2c0.8,0.7,1.3,1.8,1.5,3.4l0.3,2.5c0.2,1.7,0,3.2-0.6,4.7
	s-1.4,2.6-2.5,3.2L123.5,167.7z M124.4,154.7l1,9.1l1.1-0.6c0.6-0.3,1-0.9,1.2-1.7s0.3-1.6,0.2-2.6l-0.3-2.5c-0.1-1-0.4-1.6-0.7-2
	c-0.4-0.4-0.9-0.5-1.4-0.2L124.4,154.7z"/>
<path class="st0" d="M141,152.4L141,152.4v-8.9l1.7-0.9l-0.1,13.6l-1.7,1l-2.4-7.2l0,0l-0.3,8.9l-1.8,1.1l-3.6-12.2l1.9-1l2.2,8l0,0
	l0.4-9.3l1.3-0.7L141,152.4z"/>
<path class="st0" d="M148.4,150.1l-2.3,1.4l-0.1,2.7l-1.8,1.1l0.7-13.8l1.8-1l4,10.8l-1.7,1L148.4,150.1z M146.1,149l1.6-0.9l-1.4-4
	l0,0L146.1,149z"/>
<path class="st0" d="M152.2,143.1L152.2,143.1l0.6-5.8l1.7-0.9l-1.1,8.8l0.6,4.2l-1.6,1l-0.6-4.4l-3.4-6.3l1.8-0.9L152.2,143.1z"/>
<path class="st0" d="M188.9,53.1L188.9,53.1l1.2-8.2l2.2-1.3l-1.9,12.7l-2.2,1.3l-1.8-6.2l0,0l-1.6,8.3l-2.3,1.3l-2.3-10.4l2.3-1.3
	l1.3,6.8l0,0l1.7-8.6l1.6-0.9L188.9,53.1z"/>
<path class="st0" d="M198.3,49.3l-3.1,1.8l-0.5,2.6l-2.3,1.4l2.7-13.1l2.4-1.4l3.7,9.2l-2.3,1.4L198.3,49.3z M195.6,48.8l2.1-1.2
	l-1.2-3.4l0,0L195.6,48.8z"/>
<path class="st0" d="M204,41.7L204,41.7l1.5-5.7l2.3-1.3l-2.6,8.7l0.3,3.9l-2.2,1.3l-0.3-4l-3.6-5l2.3-1.3L204,41.7z"/>
<path class="st0" d="M219.7,34.1c0.2,1.3,0,2.5-0.6,3.8s-1.5,2.2-2.6,2.9c-1.2,0.7-2.2,0.8-3,0.4c-0.8-0.4-1.3-1.3-1.4-2.6l-0.2-1.9
	c-0.1-1.3,0.1-2.5,0.7-3.7c0.6-1.2,1.5-2.1,2.6-2.8c1.1-0.6,2.1-0.8,2.8-0.4c0.8,0.4,1.3,1.2,1.4,2.4L219.7,34.1z M217.4,33.5
	c-0.1-0.7-0.3-1.2-0.7-1.5s-0.8-0.3-1.3,0c-0.6,0.3-1,0.8-1.2,1.4c-0.2,0.6-0.3,1.3-0.2,2.1l0.2,1.9c0.1,0.8,0.3,1.3,0.7,1.6
	s0.8,0.3,1.4-0.1c0.6-0.3,1-0.8,1.2-1.5s0.3-1.4,0.2-2.1L217.4,33.5z"/>
<path class="st0" d="M226.5,30.3l-3.5,2.1l0.6,4.1l-2.1,1.2l-1.4-10.1l6-3.5l0.3,1.7l-4,2.3l0.4,2.4l3.5-2L226.5,30.3z"/>
<path class="st0" d="M233.4,26.2l-3.4,2l0.7,4l-2,1.2l-1.7-9.8l5.9-3.4l0.3,1.7l-3.9,2.3l0.4,2.3l3.4-2L233.4,26.2z"/>
<path class="st0" d="M183.6,115.1l-1.4-0.9l-2.2-7.4l0,0l0.1,6.1l-1.3-0.8l-0.1-9.5l1.4,0.7l2.2,7.4l0,0v-6.2l1.4,0.8L183.6,115.1z"
	/>
<path class="st0" d="M190,114.8c0,1.3-0.3,2.1-0.8,2.6s-1.2,0.5-2.1,0c-0.8-0.5-1.5-1.3-2-2.4s-0.8-2.2-0.8-3.4v-1.8
	c0-1.2,0.2-2.1,0.7-2.6s1.2-0.6,2-0.2s1.5,1.2,2.1,2.3c0.5,1.1,0.8,2.3,0.8,3.6L190,114.8z M188.4,112c0-0.7-0.1-1.4-0.3-2
	s-0.5-1-1-1.2c-0.4-0.2-0.7-0.2-0.9,0.2c-0.2,0.3-0.3,0.9-0.3,1.6v1.8c0,0.7,0.1,1.4,0.3,2s0.5,1,0.9,1.2s0.7,0.2,0.9-0.1
	c0.2-0.3,0.3-0.9,0.3-1.6L188.4,112z"/>
<path class="st0" d="M199.6,121L199.6,121l1.2-6.7l1.9,1l-2.1,10.1l-1.8-1.1l-1.2-7.5l0,0l-1.4,5.9l-1.6-1l-1.6-11.6l1.7,0.9
	l0.9,7.6l0,0l1.4-6.4l1.3,0.7L199.6,121z"/>
<path class="st0" d="M207.7,127.5l-2.8-1.6l-0.5,1.9l-2-1.2l3-9.8l2.2,1.2l2.6,13.4l-2.1-1.3L207.7,127.5z M205.4,124l1.9,1.1
	l-0.8-4.7l0,0L205.4,124z"/>
<path class="st0" d="M213.7,126.5L213.7,126.5l2.2-4.3l2.6,1.4l-3.8,6.1l-0.2,4.2l-2.3-1.4l0.1-4.3l-2.9-9.4l2.4,1.3L213.7,126.5z"
	/>
</svg>
