<?xml version="1.0" encoding="iso-8859-1"?>
<!-- Generator: Adobe Illustrator 19.0.0, SVG Export Plug-In . SVG Version: 6.00 Build 0)  -->
<svg version="1.1" id="Layer_1" xmlns="http://www.w3.org/2000/svg" xmlns:xlink="http://www.w3.org/1999/xlink" width="646"  viewBox="-66 -66 646 646" xml:space="preserve">
<g>
	<g>
		<path style="fill:#E6E7E8;" d="M255.991,335.448c-1.845,0-3.699-0.574-5.288-1.766L109.462,227.752
			c-3.902-2.922-4.696-8.457-1.766-12.359c2.922-3.902,8.457-4.687,12.359-1.766l141.241,105.931
			c3.902,2.922,4.696,8.457,1.766,12.359C261.323,334.23,258.684,335.448,255.991,335.448"/>
		<path style="fill:#E6E7E8;" d="M256.009,335.448c-2.692,0-5.332-1.218-7.071-3.531c-2.931-3.902-2.136-9.437,1.766-12.359
			l141.241-105.931c3.893-2.931,9.437-2.136,12.359,1.766c2.931,3.902,2.136,9.437-1.766,12.359L261.297,333.683
			C259.708,334.874,257.854,335.448,256.009,335.448"/>
	</g>
	<polygon style="fill:#E8D5B2;" points="282.483,397.241 256,379.586 229.517,397.241 229.517,326.621 282.483,326.621 	"/>
	<path style="fill:#C69666;" d="M335.448,335.448h-52.966v61.793L256,379.586l-26.483,17.655v-61.793h-52.966
		c-9.754,0-17.655,7.901-17.655,17.655v141.241c0,9.746,7.901,17.655,17.655,17.655h158.897c9.754,0,17.655-7.91,17.655-17.655
		V353.103C353.103,343.349,345.203,335.448,335.448,335.448"/>
	<path style="fill:#EE8472;" d="M79.448,185.379c0,19.5,15.81,35.31,35.31,35.31s35.31-15.81,35.31-35.31
		C150.069,115.827,191.17,0,256,0C153.618,0,79.448,82.997,79.448,185.379"/>
	<path style="fill:#DB776A;" d="M150.069,185.379c0,19.5,15.81,35.31,35.31,35.31c19.5,0,35.31-15.81,35.31-35.31
		C220.69,119.693,233.931,0,256,0C191.17,0,150.069,115.827,150.069,185.379"/>
	<path style="fill:#EE8472;" d="M256,0c-22.069,0-35.31,119.693-35.31,185.379c0,19.5,15.81,35.31,35.31,35.31
		s35.31-15.81,35.31-35.31C291.31,119.693,278.069,0,256,0"/>
	<path style="fill:#DB776A;" d="M256,0c22.069,0,35.31,119.693,35.31,185.379c0,19.5,15.81,35.31,35.31,35.31
		c19.5,0,35.31-15.81,35.31-35.31C361.931,115.827,320.83,0,256,0"/>
	<path style="fill:#EE8472;" d="M256,0c64.83,0,105.931,115.827,105.931,185.379c0,19.5,15.81,35.31,35.31,35.31
		c19.5,0,35.31-15.81,35.31-35.31C432.552,82.997,358.382,0,256,0"/>
	<g>
		<path style="fill:#896745;" d="M326.621,494.345h-17.655c-4.882,0-8.828-3.946-8.828-8.828c0-4.882,3.946-8.828,8.828-8.828
			h17.655c4.882,0,8.828,3.946,8.828,8.828C335.448,490.399,331.502,494.345,326.621,494.345"/>
		<path style="fill:#896745;" d="M326.621,467.862h-35.31c-4.882,0-8.828-3.946-8.828-8.828c0-4.882,3.946-8.828,8.828-8.828h35.31
			c4.882,0,8.828,3.946,8.828,8.828C335.448,463.916,331.502,467.862,326.621,467.862"/>
	</g>
</g>
<g>
</g>
<g>
</g>
<g>
</g>
<g>
</g>
<g>
</g>
<g>
</g>
<g>
</g>
<g>
</g>
<g>
</g>
<g>
</g>
<g>
</g>
<g>
</g>
<g>
</g>
<g>
</g>
<g>
</g>
</svg>
