<?xml version="1.0" encoding="iso-8859-1"?>
<!-- Generator: Adobe Illustrator 19.0.0, SVG Export Plug-In . SVG Version: 6.00 Build 0)  -->
<svg version="1.1" id="Capa_1" xmlns="http://www.w3.org/2000/svg" xmlns:xlink="http://www.w3.org/1999/xlink" width="646" height="646" viewBox="-66 -66 646 646">
<path style="fill:#D9EEF7;" d="M501.333,96v362.667c0,23.564-19.103,42.667-42.667,42.667H53.333
	c-23.564,0-42.667-19.103-42.667-42.667V96H501.333z"/>
<path style="fill:#AAC4DA;" d="M501.333,53.333V96H10.667V53.333c0-23.564,19.103-42.667,42.667-42.667h405.333
	C482.231,10.667,501.333,29.769,501.333,53.333z"/>
<path style="fill:#FF7260;" d="M64,181.333h384c5.891,0,10.667,4.776,10.667,10.667v234.667c0,5.891-4.776,10.667-10.667,10.667H64
	c-5.891,0-10.667-4.776-10.667-10.667V192C53.333,186.109,58.109,181.333,64,181.333z"/>
<g>
	<path style="fill:#4C5B66;" d="M458.667,0H53.333C23.893,0.035,0.035,23.893,0,53.333v405.333
		C0.035,488.107,23.893,511.965,53.333,512h405.333c29.441-0.035,53.298-23.893,53.333-53.333V53.333
		C511.965,23.893,488.107,0.035,458.667,0z M490.667,458.667c0,17.673-14.327,32-32,32H53.333c-17.673,0-32-14.327-32-32V53.333
		c0-17.673,14.327-32,32-32h405.333c17.673,0,32,14.327,32,32V458.667z"/>
	<path style="fill:#4C5B66;" d="M42.667,85.333h160v21.333h-160V85.333z"/>
	<path style="fill:#4C5B66;" d="M53.333,42.667h21.333V64H53.333V42.667z"/>
	<path style="fill:#4C5B66;" d="M96,42.667h21.333V64H96V42.667z"/>
	<path style="fill:#4C5B66;" d="M437.333,42.667h21.333V64h-21.333V42.667z"/>
	<path style="fill:#4C5B66;" d="M448,170.667H345.749l-82.208-82.208c-4.165-4.164-10.917-4.164-15.083,0l-82.208,82.208H64
		c-11.782,0-21.333,9.551-21.333,21.333v234.667C42.667,438.449,52.218,448,64,448h384c11.782,0,21.333-9.551,21.333-21.333V192
		C469.333,180.218,459.782,170.667,448,170.667z M256,111.083l59.584,59.584H196.416L256,111.083z M448,426.667H64V192h384V426.667z
		"/>
	<path style="fill:#4C5B66;" d="M309.333,85.333h149.333v21.333H309.333V85.333z"/>
	<path style="fill:#4C5B66;" d="M266.667,330.667h32c17.171,0.502,31.498-13.01,32-30.181c0.018-0.606,0.018-1.213,0-1.819v-32
		c0.502-17.171-13.01-31.498-30.181-32c-0.606-0.018-1.213-0.018-1.819,0h-21.333c-17.171-0.502-31.498,13.01-32,30.181
		c-0.018,0.606-0.018,1.213,0,1.819V384h21.333V330.667z M266.667,266.667c-0.527-5.365,3.395-10.14,8.76-10.667
		c0.634-0.062,1.273-0.062,1.907,0h21.333c5.365-0.527,10.14,3.395,10.667,8.76c0.062,0.634,0.062,1.273,0,1.907v31.872
		c0.572,5.384-3.329,10.211-8.713,10.783c-0.649,0.069-1.304,0.073-1.954,0.012h-32V266.667z"/>
	<path style="fill:#4C5B66;" d="M352,234.667h21.333V384H352V234.667z"/>
	<path style="fill:#4C5B66;" d="M160,320h42.667v64H224V266.667c0.502-17.171-13.01-31.498-30.181-32
		c-0.606-0.018-1.213-0.018-1.819,0h-21.333c-17.171-0.502-31.498,13.01-32,30.181c-0.018,0.606-0.018,1.213,0,1.819V384H160V320z
		 M170.667,256H192c5.365-0.527,10.14,3.395,10.667,8.76c0.062,0.634,0.062,1.273,0,1.907v32H160v-32
		c-0.527-5.365,3.395-10.14,8.76-10.667C169.394,255.938,170.033,255.938,170.667,256z"/>
</g>
<g>
</g>
<g>
</g>
<g>
</g>
<g>
</g>
<g>
</g>
<g>
</g>
<g>
</g>
<g>
</g>
<g>
</g>
<g>
</g>
<g>
</g>
<g>
</g>
<g>
</g>
<g>
</g>
<g>
</g>
</svg>
