<?xml version="1.0" encoding="utf-8"?>
<!-- Generator: Adobe Illustrator 23.0.6, SVG Export Plug-In . SVG Version: 6.00 Build 0)  -->
<svg version="1.1" id="Layer_1" xmlns="http://www.w3.org/2000/svg" xmlns:xlink="http://www.w3.org/1999/xlink" x="0px" y="0px"
	 viewBox="0 0 680 680" style="enable-background:new 0 0 680 680;" xml:space="preserve">
<style type="text/css">
	.st0{fill:#FE5647;}
	.st1{fill:#83F4B6;}
</style>
<path class="st0" d="M493.8,598.1c-7,4.1-13.7,8-20.3,11.8c-39.8,23-79.6,45.9-119.4,69c-2.6,1.5-4.5,1.4-7-0.1
	c-19.3-11.3-38.7-22.6-58.1-33.6c-77.1-43.6-153.5-88.5-230.4-132.6c-3.1-1.8-4-3.7-4-7.1c0.1-110.5,0.1-221,0-331.4
	c0-3.1,0.9-4.8,3.7-6.4C132,125.2,205.6,82.5,279.4,40.2C302.2,27.1,325,13.9,347.9,1c1.9-1.1,3.3-1.4,5.3-0.2
	c46.2,26.8,92.5,53.5,138.7,80.2c0.4,0.3,0.9,0.6,1.3,0.9c-0.3,1.5-1.6,1.7-2.5,2.2c-17.1,9.9-34.3,19.7-51.3,29.7
	c-2.1,1.2-3.6,1-5.7-0.1c-26.6-15.4-53.3-30.7-79.9-46.2c-2.4-1.4-4.1-1.2-6.3,0.1c-19.7,11.5-39.3,23-59.2,34.2
	c-57.7,32.3-114.5,66-172,98.7c-3.5,2-4.5,4.1-4.5,7.9c0.1,88.1,0.1,176.1,0,264.2c0,3.6,1.1,5.5,4.2,7.3
	c54.7,31.4,109.2,63.2,164.1,94.4c22.5,12.8,44.9,25.8,67.4,38.6c2.4,1.3,4,1.3,6.4,0c26.5-15.4,53.1-30.6,79.5-46
	c2.3-1.4,4-1.4,6.3,0c16.8,9.8,33.8,19.5,50.7,29.2C491.5,596.6,492.4,597.2,493.8,598.1z"/>
<path class="st0" d="M559.2,461.1c-14.5,8.4-29,16.8-43.5,25.1c-53.7,31-107.5,62-161.2,93.2c-2.9,1.7-5,1.6-7.8-0.1
	c-18.9-11-37.7-22.1-56.8-32.8c-48.8-27.3-96.9-55.8-145.4-83.4c-2.6-1.5-3.8-3.1-3.8-6.3c0.1-77.9,0.1-155.7,0-233.6
	c0-2.9,0.9-4.4,3.3-5.8c45.5-26.2,90.9-52.6,136.5-78.5c22.3-12.7,44.5-25.5,66.7-38.3c2.5-1.4,4.2-1.5,6.7-0.1
	c66.2,38.3,132.4,76.5,198.6,114.8c2.2,1.3,4.5,2.6,7.1,4.2c-16.4,9.5-32.6,18.4-48.2,28.1c-6.5,4.1-11.1,3.9-17.7,0
	c-46.5-27.3-93.3-54-140-81c-2.3-1.3-3.8-1.2-6,0.1c-20.6,12-41.1,24.2-61.9,35.7c-28.4,15.7-56.3,32.4-84.5,48.3
	c-2.2,1.2-3.1,2.6-3.1,5.2c0.1,56.2,0.1,112.5,0,168.7c0,2.6,0.9,3.9,3.1,5.2c26.5,15.2,52.7,30.7,79.4,45.5
	c22.3,12.4,44.3,25.4,66.4,38c2.8,1.6,4.7,1.6,7.4,0c47.9-27.7,95.9-55.3,143.8-83.1c3.1-1.8,5.3-1.9,8.5-0.1
	c16.3,9.7,32.8,19.1,49.3,28.6C557,459.3,558.4,459.7,559.2,461.1z"/>
<path class="st1" d="M452,433.9c-9.5,0-17.7-3.3-24.5-9.8c-2.1-1.9-3.4-1.9-5.7-0.6c-11.2,6.5-22.5,13-33.7,19.4
	c-2.1,1.2-2.7,2.3-2.1,5c4.3,18.8-6.7,37.7-25.3,42.8c-26.7,7.3-50.4-15.9-45.1-41.3c0.8-3.8-0.1-5.5-3.3-7.3
	c-11.4-6.2-22.6-12.6-33.9-19c-1.8-1-2.9-0.8-4.4,0.6c-10.3,9.6-22.4,12.8-35.9,8.7c-14.4-4.3-23-14.5-25.2-29.2
	c-2.7-17.5,6.9-33.7,24.8-39.7c3-1,4-2.3,4-5.5c-0.2-11.9-0.2-23.9,0-35.8c0-3.1-0.6-4.7-4-5.7c-16-5.1-26.1-20.1-25.1-36.7
	c0.9-15.9,12.5-29.4,28.6-32.8c12.1-2.6,22.8,0.4,32,8.7c1.7,1.5,3,2.5,5.4,1.1c11.5-6.6,23-13,34.6-19.4c2.5-1.4,3.3-2.8,2.5-5.8
	c-4.4-18.8,8.4-38.7,26.7-42.6c22-4.7,40.5,9.4,44.1,28.7c0.9,5,0.8,9.9-0.5,14.7c-0.6,2.2,0,3.3,1.9,4.4
	c11.6,6.6,23.2,13.3,34.7,20c2.1,1.2,3.4,0.7,5.1-0.9c10.2-9.6,22.4-12.6,35.6-8.3c13.7,4.5,22.3,14.2,24.7,28.8
	c2.9,17.6-7.7,34.6-24.8,40c-2.7,0.8-3.7,1.9-3.6,4.8c0.2,12.4,0.1,24.9,0,37.3c0,2.6,0.7,3.7,3.4,4.6c18.3,5.8,27.2,22.6,25.4,37.5
	C485.6,421,471.1,433.8,452,433.9z M444.6,340.3c0-6.2-0.2-12.3,0.1-18.5c0.1-2.9-0.7-4.2-3.7-5.2c-18.1-6-28.3-24-24-42.5
	c0.6-2.4,0-3.5-2-4.6c-11.5-6.5-23-13.1-34.4-19.8c-2-1.2-3.2-1.1-5,0.6c-8.4,7.8-18.2,11.5-29.8,9.8c-7.9-1.2-14.7-4.5-20.4-10.1
	c-1-1-1.7-2-3.6-1c-12,7-24,13.8-36.1,20.7c-1.4,0.8-2,1.7-1.5,3.5c2.3,8.5,1.4,16.5-2.9,24.5c-5.2,9.5-12.6,16-22.8,19.2
	c-2.4,0.7-3,1.8-2.9,4.1c0.1,12.2,0.2,24.4,0,36.5c-0.1,3.4,0.8,4.9,4.2,6.1c13.6,4.6,21.4,14.7,25.1,28.2c1.3,4.8,0.8,9.7-0.5,14.4
	c-0.7,2.5,0.1,3.5,2.1,4.6c10.1,5.7,20.2,11.6,30.3,17.4c6.3,3.6,6.3,3.7,12-1.1c0.5-0.4,1-0.8,1.6-1.1c14.2-9.6,32.1-8.3,44.7,3.6
	c2,1.9,3.4,2.1,5.7,0.7c11.4-6.7,22.9-13.2,34.4-19.7c1.7-1,2.2-1.9,1.7-4c-4.3-19.6,5.9-37.3,25-43.4c2.1-0.7,2.6-1.8,2.6-3.7
	C444.6,353.1,444.6,346.7,444.6,340.3z M227.3,397.7c0,12.3,9.3,21.9,21.3,22c11.9,0.1,22.1-10.1,22-22.1
	c-0.1-11.7-10-21.2-22.2-21.2C236.6,376.4,227.3,385.8,227.3,397.7z M473.6,398.2c0-12.5-9.2-21.7-21.9-21.8
	c-11.7-0.1-21.4,9.7-21.4,21.6c0,11.6,9.8,21.6,21.4,21.7C463.6,419.8,473.6,410,473.6,398.2z M473.6,282.4
	c0-12.3-9.2-21.6-21.5-21.7c-12.1-0.1-21.7,9.5-21.8,21.6c-0.1,11.9,10,21.6,22.3,21.7C463.8,304.1,473.6,294,473.6,282.4z
	 M372.2,224.3c0-12.3-9.4-21.6-21.6-21.6c-11.6,0-21.8,9.9-21.6,21.5c0.3,13.1,10.6,22,21.6,21.8
	C362.9,245.8,372.3,236.5,372.2,224.3z M227.3,282.2c0,12.2,9.9,22,22,21.8c11.4-0.2,21.5-10.4,21.2-21.9
	c-0.3-11.6-10-21.7-21.6-21.4C236.6,261,227.2,270,227.3,282.2z M350.5,477.3c12.2,0.1,21.6-8.9,21.7-20.9
	c0.2-12.3-9.2-22.4-21.5-22.2c-11.9,0.2-21.4,9.1-21.7,21.8C328.7,467.6,338.6,477.1,350.5,477.3z"/>
</svg>
